<svg xmlns="http://www.w3.org/2000/svg" version="1.0" width="96" height="96" preserveAspectRatio="xMidYMid meet"><rect id="backgroundrect" width="100%" height="100%" x="0" y="0" fill="none" stroke="none"/>
<metadata>
Created by potrace 1.10, written by Peter Selinger 2001-2011
</metadata>

<g class="currentLayer" style=""><title>Layer 1</title><g transform="translate(0,96) scale(0.10000000149011612,-0.10000000149011612) " fill="#33272a" stroke="none" id="svg_1" class="selected" fill-opacity="1">
<path d="M145.43096507395205,827.8047260266281 c-22.34166600457459,-21.38690539073265 -25.388256823380217,-33.60799418543702 -25.388256823380217,-96.75028629140961 c0,-63.14229210597259 3.046590818805626,-75.36338090067696 25.388256823380217,-96.75028629140961 c21.326135731639383,-22.405329456958015 33.51249900686189,-25.460601655634107 96.47537592884483,-25.460601655634107 c62.96287692198294,0 75.14924019720544,3.055272198676093 96.47537592884483,25.460601655634107 c22.34166600457459,21.38690539073265 25.388256823380217,33.60799418543702 25.388256823380217,96.75028629140961 c0,63.14229210597259 -3.046590818805626,75.36338090067696 -25.388256823380217,96.75028629140961 c-21.326135731639383,22.405329456958015 -33.51249900686189,25.460601655634107 -96.47537592884483,25.460601655634107 c-62.96287692198294,0 -75.14924019720544,-3.055272198676093 -96.47537592884483,-25.460601655634107 zm137.09658684625316,-96.75028629140961 c0,-40.73696264901457 0,-40.73696264901457 -40.62121091740835,-40.73696264901457 c-40.62121091740835,0 -40.62121091740835,0 -40.62121091740835,40.73696264901457 c0,40.73696264901457 0,40.73696264901457 40.62121091740835,40.73696264901457 c40.62121091740835,0 40.62121091740835,0 40.62121091740835,-40.73696264901457 z" id="svg_2" fill="#33272a"/>
<path d="M632.8854960828522,827.8047260266281 c-22.34166600457459,-21.38690539073265 -25.388256823380217,-33.60799418543702 -25.388256823380217,-96.75028629140961 c0,-63.14229210597259 3.046590818805626,-75.36338090067696 25.388256823380217,-96.75028629140961 c21.326135731639383,-22.405329456958015 33.51249900686189,-25.460601655634107 96.47537592884483,-25.460601655634107 c62.96287692198294,0 75.14924019720544,3.055272198676093 96.47537592884483,25.460601655634107 c22.34166600457459,21.38690539073265 25.388256823380217,33.60799418543702 25.388256823380217,96.75028629140961 c0,63.14229210597259 -3.046590818805626,75.36338090067696 -25.388256823380217,96.75028629140961 c-21.326135731639383,22.405329456958015 -33.51249900686189,25.460601655634107 -96.47537592884483,25.460601655634107 c-62.96287692198294,0 -75.14924019720544,-3.055272198676093 -96.47537592884483,-25.460601655634107 zm137.09658684625316,-96.75028629140961 c0,-40.73696264901457 0,-40.73696264901457 -40.62121091740835,-40.73696264901457 c-40.62121091740835,0 -40.62121091740835,0 -40.62121091740835,40.73696264901457 c0,40.73696264901457 0,40.73696264901457 40.62121091740835,40.73696264901457 c40.62121091740835,0 40.62121091740835,0 40.62121091740835,-40.73696264901457 z" id="svg_3" fill="#33272a"/>
<path d="M445.0123955898386,731.0544397352186 c0,-40.73696264901457 0,-40.73696264901457 40.62121091740835,-40.73696264901457 c40.62121091740835,0 40.62121091740835,0 40.62121091740835,40.73696264901457 c0,40.73696264901457 0,40.73696264901457 -40.62121091740835,40.73696264901457 c-40.62121091740835,0 -40.62121091740835,0 -40.62121091740835,-40.73696264901457 z" id="svg_4" fill="#33272a"/>
<path d="M201.28513008538852,486.63266384113115 c0,-40.73696264901457 0,-40.73696264901457 40.62121091740835,-40.73696264901457 c40.62121091740835,0 40.62121091740835,0 40.62121091740835,40.73696264901457 c0,40.73696264901457 0,40.73696264901457 -40.62121091740835,40.73696264901457 c-40.62121091740835,0 -40.62121091740835,0 -40.62121091740835,-40.73696264901457 z" id="svg_5" fill="#33272a"/>
<path d="M688.7396610942887,486.63266384113115 c0,-40.73696264901457 0,-40.73696264901457 40.62121091740835,-40.73696264901457 c40.62121091740835,0 40.62121091740835,0 40.62121091740835,40.73696264901457 c0,40.73696264901457 0,40.73696264901457 -40.62121091740835,40.73696264901457 c-40.62121091740835,0 -40.62121091740835,0 -40.62121091740835,-40.73696264901457 z" id="svg_6" fill="#33272a"/>
<path d="M145.43096507395205,338.96117423845334 c-37.57462009860272,-36.663266384113115 -37.57462009860272,-156.8373061987061 0,-193.50057258281922 c21.326135731639383,-22.405329456958015 33.51249900686189,-25.460601655634107 96.47537592884483,-25.460601655634107 c62.96287692198294,0 75.14924019720544,3.055272198676093 96.47537592884483,25.460601655634107 c22.34166600457459,21.38690539073265 25.388256823380217,33.60799418543702 25.388256823380217,96.75028629140961 c0,63.14229210597259 -3.046590818805626,75.36338090067696 -25.388256823380217,96.75028629140961 c-21.326135731639383,22.405329456958015 -33.51249900686189,25.460601655634107 -96.47537592884483,25.460601655634107 c-62.96287692198294,0 -75.14924019720544,-3.055272198676093 -96.47537592884483,-25.460601655634107 zm137.09658684625316,-96.75028629140961 c0,-40.73696264901457 0,-40.73696264901457 -40.62121091740835,-40.73696264901457 c-40.62121091740835,0 -40.62121091740835,0 -40.62121091740835,40.73696264901457 c0,40.73696264901457 0,40.73696264901457 40.62121091740835,40.73696264901457 c40.62121091740835,0 40.62121091740835,0 40.62121091740835,-40.73696264901457 z" id="svg_7" fill="#33272a"/>
<path d="M632.8854960828522,338.96117423845334 c-22.34166600457459,-21.38690539073265 -25.388256823380217,-33.60799418543702 -25.388256823380217,-96.75028629140961 c0,-63.14229210597259 3.046590818805626,-75.36338090067696 25.388256823380217,-96.75028629140961 c21.326135731639383,-22.405329456958015 33.51249900686189,-25.460601655634107 96.47537592884483,-25.460601655634107 c62.96287692198294,0 75.14924019720544,3.055272198676093 96.47537592884483,25.460601655634107 c22.34166600457459,21.38690539073265 25.388256823380217,33.60799418543702 25.388256823380217,96.75028629140961 c0,63.14229210597259 -3.046590818805626,75.36338090067696 -25.388256823380217,96.75028629140961 c-21.326135731639383,22.405329456958015 -33.51249900686189,25.460601655634107 -96.47537592884483,25.460601655634107 c-62.96287692198294,0 -75.14924019720544,-3.055272198676093 -96.47537592884483,-25.460601655634107 zm137.09658684625316,-96.75028629140961 c0,-40.73696264901457 0,-40.73696264901457 -40.62121091740835,-40.73696264901457 c-40.62121091740835,0 -40.62121091740835,0 -40.62121091740835,40.73696264901457 c0,40.73696264901457 0,40.73696264901457 40.62121091740835,40.73696264901457 c40.62121091740835,0 40.62121091740835,0 40.62121091740835,-40.73696264901457 z" id="svg_8" fill="#33272a"/>
<path d="M445.0123955898386,242.21088794704372 c0,-40.73696264901457 0,-40.73696264901457 40.62121091740835,-40.73696264901457 c40.62121091740835,0 40.62121091740835,0 40.62121091740835,40.73696264901457 c0,40.73696264901457 0,40.73696264901457 -40.62121091740835,40.73696264901457 c-40.62121091740835,0 -40.62121091740835,0 -40.62121091740835,-40.73696264901457 z" id="svg_9" fill="#33272a"/>
</g></g></svg>